<svg width="131" height="40" viewBox="0 0 131 40" fill="none" xmlns="http://www.w3.org/2000/svg">
<path d="M0 29.1141V0.5H12.5172C12.8054 0.5 13.1897 0.513247 13.6701 0.539741C14.1642 0.552989 14.6034 0.592731 14.9877 0.658968C16.7582 0.923913 18.2062 1.48692 19.3316 2.34799C20.4708 3.20907 21.308 4.29535 21.8433 5.60683C22.3785 6.90506 22.6462 8.35564 22.6462 9.95856C22.6462 12.3563 22.0286 14.4096 20.7933 16.1185C19.5581 17.8142 17.6229 18.8607 14.9877 19.2582L12.5172 19.4171H5.59978V29.1141H0ZM16.717 29.1141L10.8702 17.4698L16.6347 16.3967L23.0579 29.1141H16.717ZM5.59978 14.3699H12.2701C12.5583 14.3699 12.874 14.3567 13.2171 14.3302C13.5603 14.3037 13.8759 14.2507 14.1642 14.1712C14.919 13.9725 15.5023 13.6413 15.9141 13.1776C16.3258 12.7007 16.6072 12.1775 16.7582 11.6078C16.9229 11.025 17.0052 10.4752 17.0052 9.95856C17.0052 9.44192 16.9229 8.89878 16.7582 8.32914C16.6072 7.74626 16.3258 7.223 15.9141 6.75934C15.5023 6.28244 14.919 5.94463 14.1642 5.74592C13.8759 5.66644 13.5603 5.61345 13.2171 5.58696C12.874 5.56046 12.5583 5.54721 12.2701 5.54721H5.59978V14.3699Z" fill="#FF4F15"/>
<path d="M37.5895 29.7103C35.3523 29.7103 33.3896 29.2267 31.7014 28.2597C30.0133 27.2926 28.6957 25.9613 27.7487 24.2656C26.8154 22.5567 26.3487 20.5961 26.3487 18.3838C26.3487 16.145 26.8291 14.1778 27.7898 12.4822C28.7506 10.7733 30.075 9.44192 31.7632 8.48811C33.4514 7.53431 35.3935 7.05741 37.5895 7.05741C39.8266 7.05741 41.7893 7.54093 43.4775 8.50798C45.1794 9.47503 46.5038 10.813 47.4508 12.5219C48.3979 14.2176 48.8714 16.1715 48.8714 18.3838C48.8714 20.6094 48.391 22.5766 47.4303 24.2855C46.4832 25.9811 45.1588 27.3125 43.4569 28.2796C41.7687 29.2334 39.8129 29.7103 37.5895 29.7103ZM37.5895 24.663C39.3874 24.663 40.7256 24.0802 41.604 22.9144C42.4961 21.7354 42.9422 20.2252 42.9422 18.3838C42.9422 16.4762 42.4893 14.9528 41.5834 13.8135C40.6913 12.6743 39.36 12.1046 37.5895 12.1046C36.3679 12.1046 35.366 12.3696 34.5837 12.8995C33.8014 13.4293 33.2181 14.1646 32.8338 15.1051C32.4632 16.0457 32.2779 17.1386 32.2779 18.3838C32.2779 20.3047 32.724 21.8347 33.6161 22.974C34.5219 24.1 35.8464 24.663 37.5895 24.663Z" fill="#FF4F15"/>
<path d="M61.6748 29.75C59.9318 29.75 58.5112 29.4652 57.4132 28.8956C56.3152 28.3259 55.4574 27.6039 54.8398 26.7296C54.2359 25.8553 53.8036 24.9479 53.5428 24.0073C53.282 23.0535 53.1242 22.1858 53.0693 21.4042C53.0144 20.6226 52.9869 20.053 52.9869 19.6953V7.65353H58.6691V17.7877C58.6691 18.2779 58.6965 18.9071 58.7514 19.6754C58.8063 20.4305 58.9779 21.1923 59.2661 21.9606C59.5543 22.7289 60.021 23.3714 60.666 23.8881C61.3248 24.4047 62.2513 24.663 63.4454 24.663C63.9257 24.663 64.4404 24.5902 64.9894 24.4445C65.5384 24.2987 66.0531 24.0205 66.5335 23.6099C67.0138 23.186 67.405 22.57 67.707 21.7619C68.0226 20.9406 68.1805 19.8675 68.1805 18.5428L71.3921 20.0132C71.3921 21.7089 71.0353 23.2986 70.3216 24.7823C69.6079 26.266 68.5304 27.4648 67.0893 28.3789C65.6619 29.293 63.8571 29.75 61.6748 29.75ZM68.8804 29.1141V22.0003H68.1805V7.65353H73.8214V29.1141H68.8804Z" fill="#FF4F15"/>
<path d="M88.0573 39.5C86.9193 39.5 85.7949 39.328 84.6843 38.9841C83.5874 38.654 82.5728 38.1243 81.6404 37.3952C80.708 36.6799 79.9265 35.7444 79.2957 34.5889L82.0312 33.0619C82.6482 34.3 83.512 35.1873 84.6226 35.7238C85.747 36.2741 86.8919 36.5492 88.0573 36.5492C89.6616 36.5492 90.9573 36.2466 91.9445 35.6413C92.9455 35.0497 93.6722 34.1693 94.1246 33C94.5771 31.8307 94.7965 30.3725 94.7828 28.6254V22.6825H95.1324V6.69047H97.8267V28.6667C97.8267 29.2995 97.8062 29.9048 97.765 30.4825C97.7376 31.0741 97.6759 31.6518 97.5799 32.2159C97.3194 33.8804 96.7778 35.2492 95.9551 36.3222C95.1461 37.3952 94.0766 38.1931 92.7466 38.7159C91.4303 39.2386 89.8672 39.5 88.0573 39.5ZM87.8517 29.5952C85.7812 29.5952 84.0125 29.0794 82.5453 28.0476C81.0782 27.0021 79.9539 25.5921 79.1723 23.8175C78.3908 22.0429 78 20.0413 78 17.8127C78 15.5979 78.3839 13.6032 79.1518 11.8286C79.9333 10.054 81.0508 8.65079 82.5042 7.61904C83.9576 6.5873 85.699 6.07143 87.7283 6.07143C89.8124 6.07143 91.5675 6.58042 92.9934 7.59841C94.4194 8.6164 95.4958 10.0127 96.2225 11.7873C96.9629 13.5481 97.3331 15.5566 97.3331 17.8127C97.3331 20.0275 96.9698 22.0291 96.2431 23.8175C95.5163 25.5921 94.4469 27.0021 93.0346 28.0476C91.6223 29.0794 89.8947 29.5952 87.8517 29.5952ZM88.1602 26.7682C89.737 26.7682 91.0396 26.3831 92.0679 25.6127C93.0963 24.8423 93.8641 23.7831 94.3714 22.4349C94.8788 21.073 95.1324 19.5323 95.1324 17.8127C95.1324 16.0656 94.8788 14.5249 94.3714 13.1905C93.8641 11.8423 93.0963 10.7899 92.0679 10.0333C91.0533 9.27672 89.7713 8.89841 88.2219 8.89841C86.6313 8.89841 85.315 9.29047 84.273 10.0746C83.2309 10.8587 82.4562 11.9249 81.9489 13.273C81.4553 14.6212 81.2085 16.1344 81.2085 17.8127C81.2085 19.5048 81.4621 21.0317 81.9695 22.3936C82.4905 23.7418 83.2652 24.8079 84.2935 25.5921C85.3219 26.3762 86.6108 26.7682 88.1602 26.7682Z" fill="black"/>
<path d="M112.976 29.5952C110.81 29.5952 108.931 29.1138 107.341 28.1508C105.764 27.1878 104.537 25.8328 103.659 24.0857C102.782 22.3386 102.343 20.2889 102.343 17.9365C102.343 15.5016 102.775 13.3968 103.639 11.6222C104.503 9.84762 105.716 8.47883 107.279 7.51587C108.856 6.55291 110.714 6.07143 112.853 6.07143C115.047 6.07143 116.918 6.58042 118.468 7.59841C120.017 8.60264 121.189 10.0471 121.985 11.9317C122.78 13.8164 123.143 16.0656 123.075 18.6794H119.99V17.6063C119.935 14.7175 119.311 12.537 118.118 11.0651C116.939 9.59312 115.211 8.85714 112.935 8.85714C110.549 8.85714 108.719 9.63439 107.444 11.1889C106.182 12.7434 105.552 14.9582 105.552 17.8333C105.552 20.6397 106.182 22.8201 107.444 24.3746C108.719 25.9153 110.522 26.6857 112.853 26.6857C114.443 26.6857 115.828 26.3212 117.008 25.5921C118.2 24.8492 119.14 23.7831 119.825 22.3936L122.643 23.4873C121.765 25.427 120.47 26.9333 118.756 28.0063C117.056 29.0656 115.129 29.5952 112.976 29.5952ZM104.482 18.6794V16.1413H121.45V18.6794H104.482Z" fill="black"/>
<path d="M127.412 28.9762V25.4476H130.929V28.9762H127.412Z" fill="black"/>
</svg>
