<svg width="56" height="56" viewBox="0 0 56 56" fill="none" xmlns="http://www.w3.org/2000/svg">
<path d="M28 0L25.8136 16.4803L17.7419 1.94624L21.8961 18.6882L8.20072 8.20072L18.3094 21.4002L2.32378 16.8315L17.0992 25.7324L0 28L16.4803 30.1864L1.94743 38.2581L18.6882 34.1039L8.20072 47.7993L21.4002 37.6906L16.8315 53.6762L25.7324 38.9008L28 56L30.1864 39.5197L38.2581 54.0538L34.1039 37.3118L47.7993 47.7993L37.6918 34.5998L53.6762 39.1697L38.9008 30.2676L56 28L39.5197 25.8136L54.0538 17.7419L37.3118 21.8961L47.7993 8.20072L34.5998 18.3094L39.1697 2.32378L30.2676 17.0992L28 0Z" fill="#FF4F15"/>
</svg>
